<?xml version="1.0" encoding="UTF-8"?>
<svg id="Capa_1" xmlns="http://www.w3.org/2000/svg" version="1.1" xmlns:xlink="http://www.w3.org/1999/xlink" viewBox="0 0 449 90">
  <!-- Generator: Adobe Illustrator 29.1.0, SVG Export Plug-In . SVG Version: 2.1.0 Build 142)  -->
  <defs>
    <style>
      .st0 {
        fill: currentColor;
      }

      .st1 {
        clip-path: url(#clippath);
      }
    </style>
    <clipPath id="clippath">
      <path class="st0" d="M65.2,33.7c.2-5.8-.6-11.7.9-17.3,3.8-14,20.7-20.6,32.6-11.9,2.8-.8,5.6-1.6,8.5-1.7l-3.5,2.6c-5,4.5-6.4,9.6-6.6,16.1-.7,16.6,3.2,30.6-8.9,44.2-10.5,11.8-27.2,15.2-41.7,9.1l-13.4,14.4H11.5c0-.3.1-.4.3-.6.6-.7,1.7-1.9,2.4-2.6,7.9-8.3,16.4-16,24.3-24.3,1.3.3,2.5.8,3.7,1.1,9.5,2.3,21-.1,26.9-8.4,3.4-4.8,4.7-10.5,3.4-16.4-.3-1.4-.9-3.1-1.9-4.2v6.1c0,2.3-2,7.1-3.1,9.1-8.3,14.2-29.6,12.9-39.8,1.6-.6-.6-1.3-1.5-1.6-2.2h15l-4.2-4.2c-5.1-.3-10.4.6-15.3-1.2-4-1.5-7.9-5.1-9.4-9.1h53.1,0ZM86.3,7.5c-3.7.6-2.9,6.2.9,5.8,3.8-.4,3.1-6.4-.9-5.8Z" />
    </clipPath>
  </defs>
  <g id="_x35_a773c04-740a-4296-96dc-d8928e80f22e">
    <path class="st0" d="M117.6,28v-10.7h38.7c0,1.7-.2,3.2-.7,4.5h0c-.5,1.3-1.2,2.4-2,3.3h0c-.8.9-1.7,1.6-2.8,2.1h0c-1,.5-2.2.7-3.3.7h-6.5v45.8h-10.9V28h-12.5ZM155.9,32.2h10.5v20h0c0,1,0,2,0,3.1h0c0,1.1.2,2.2.3,3.2h0c.2,1,.5,2,1,2.9h0c.4.9,1.1,1.7,2,2.3h0c.6.5,1.3.8,2.1,1h0c.8.2,1.6.3,2.4.3h0c.8,0,1.6-.1,2.4-.3h0c.7-.2,1.4-.5,2.1-1h0c.9-.6,1.6-1.3,2.1-2.2h0c.5-.9.8-1.8,1-2.9h0c.2-1,.3-2,.3-3.1h0v-3.1h0v-12h0c0-2.9.9-5.1,2.8-6.5h0c1.9-1.4,4.4-2.1,7.5-2h0v17.7h0c0,3.6,0,6.7-.3,9.2h0c-.3,2.4-.7,4.3-1.3,5.8h0c-1.6,3.6-3.8,6.2-6.6,7.7h0c-2.8,1.6-6.2,2.4-10,2.4h0c-4.1,0-7.6-.9-10.6-2.8h0c-3-1.8-5.1-4.7-6.4-8.8h0c-.4-1.3-.7-3-.9-5.1h0c-.2-2.1-.3-4.4-.3-7h0v-19ZM211,32v4.8h0c.4-1,1.1-1.8,2-2.5h0c.9-.7,1.9-1.3,2.9-1.8h0c1.1-.5,2.2-.9,3.3-1.2h0c1.1-.3,2.2-.4,3.2-.5h0c2-.1,4.1.2,6.1.9h0c2,.7,3.8,1.8,5.5,3.5h0c2.4,2.5,3.6,6.1,3.6,10.9h0v27.5h-10.3v-3.7h0c0-1.6,0-3.3,0-5.1h0v-5.8h0c0-2,0-3.9,0-5.6h0c0-1.8-.2-3.4-.3-4.8h0c0-1.4-.2-2.4-.4-3.1h0c-.4-1.7-1.2-3-2.4-3.9h0c-1.2-.8-2.5-1.3-3.9-1.3h0c-1.8,0-3.3.5-4.3,1.5h0c-1,1-1.6,2.2-1.6,3.9h0c-.7-.2-1.3-.6-2-1.3h0c-.6-.7-1.1-1.4-1.4-2.1h0v31.3h-10.4v-41.8h10.4ZM274.1,57.7h0c-2.9.8-5.6,1-8,.8h0c-2.4-.2-4.3-.8-5.9-1.7h0c-1.5-.9-2.6-2.2-3.1-3.7h0c-.5-1.6-.4-3.4.4-5.4h0c1.7,1.4,3.6,2.2,5.8,2.3h0c2.2.2,4.4.1,6.4-.1h0c1.7-.2,3-.5,3.9-1.1h0c.9-.6,1.4-1.3,1.6-2.1h0c.2-.8.2-1.6-.2-2.5h0c-.4-.8-1-1.6-1.8-2.3h0c-.8-.7-1.9-1.3-3.1-1.7h0c-1.2-.4-2.6-.6-4-.6h0c-1.5.1-3,.5-4.4,1.2h0c-1.4.7-2.6,1.5-3.7,2.7h0c-1.1,1.2-1.9,2.5-2.6,4h0c-.7,1.5-1,3.2-1,5h0c0,1.5,0,3,.5,4.4h0c.4,1.4,1,2.7,1.8,4h0c.8,1.2,1.8,2.2,2.9,3.1h0c1.1.8,2.4,1.4,3.9,1.6h0c2,.4,4.1.2,6.3-.4h0c2.2-.6,4.1-1.8,5.8-3.5h0l8.5,4.1h0c-2.2,3.3-4.8,5.7-7.8,7.1h0c-3,1.4-6.5,2.1-10.3,2.1h0c-3.6,0-6.8-.6-9.5-1.9h0c-2.7-1.3-5-3-6.7-5.1h0c-1.8-2.1-3.2-4.4-4-7.1h0c-.9-2.7-1.3-5.4-1.3-8.2h0c0-2.8.6-5.5,1.6-8.1h0c1-2.7,2.5-5.1,4.4-7.1h0c2.2-2.3,4.7-3.9,7.5-4.9h0c2.9-1,5.8-1.4,8.8-1.4h0c3.3,0,6.2.6,8.6,1.7h0c2.4,1.1,4.4,2.6,5.9,4.3h0c1.5,1.7,2.5,3.7,3,5.8h0c.5,2.1.4,4.2-.1,6.2h0c-.6,2-1.7,3.8-3.3,5.4h0c-1.7,1.6-4,2.7-6.8,3.4ZM301.8,69.4v4.4h-10.1V25.7h0c0-2.2.9-4.1,2.7-5.8h0c1.8-1.6,4.3-2.5,7.4-2.6h0v32.6h0c0,1.8.2,3.6.5,5.5h0c.3,1.8.9,3.5,1.7,5h0c.8,1.5,1.9,2.7,3.3,3.7h0c1.4.9,3.1,1.4,5.2,1.4h0c2.5,0,4.5-.6,6.2-1.8h0c1.7-1.2,2.9-2.6,3.7-4.4h0c.8-1.8,1.2-3.7,1.2-5.8h0c0-2.1-.5-4.1-1.3-5.8h0c-.8-1.8-2.1-3.2-3.7-4.4h0c-1.7-1.2-3.7-1.8-6.1-1.8h0c-1.4,0-3,.2-4.6.7h0c-1.7.5-2.9,1.3-3.9,2.6h0c-.5-.8-.7-2-.7-3.3h0c0-1.4.3-2.8,1-4.1h0c.7-1.3,1.8-2.5,3.3-3.5h0c1.5-1,3.6-1.6,6.3-1.7h0c2.6,0,5.1.4,7.5,1.4h0c2.4,1,4.5,2.5,6.3,4.4h0c1.9,1.9,3.4,4.1,4.4,6.8h0c1.1,2.7,1.7,5.6,1.7,8.8h0c0,3.3-.5,6.3-1.6,8.9h0c-1,2.6-2.4,4.8-4.1,6.6h0c-1.7,1.8-3.7,3.3-5.9,4.3h0c-2.2,1-4.5,1.6-6.9,1.7h0c-2.4,0-4.7-.3-7.1-1.2h0c-2.4-.9-4.6-2.3-6.6-4.3h0ZM342.7,73.8v-33.3h0c.1-1.6.5-3,1-4h0c.5-1.1,1.3-1.9,2.2-2.6h0c.9-.6,2-1.1,3.2-1.4h0c1.2-.3,2.6-.5,4-.5h0v41.8h-10.4ZM348,14.9h0c1.8,0,3.4.7,4.7,2h0c1.3,1.3,2,2.9,2,4.8h0c0,1.9-.6,3.5-1.9,4.8h0c-.8.7-1.7,1.2-2.7,1.6h0c-1,.3-2,.6-3,.9h0c-1,.3-1.9.7-2.7,1.1h0c-.8.4-1.4,1-1.7,2h0c-.3-.9-.6-2-.9-3.3h0c-.3-1.3-.5-2.7-.6-4.1h0c0-1.5,0-2.9.2-4.3h0c.3-1.4.8-2.5,1.7-3.4h0c1.3-1.3,2.9-2,4.8-2ZM362.7,73.8V31.9h9v5.4h0c.9-1.9,2.1-3.4,3.5-4.5h0c1.4-1.1,3-1.7,4.7-1.8h0c2.3-.2,4.1.2,5.5,1.2h0c1.4,1,2.4,2.2,2.9,3.6h0c.6,1.4.7,2.9.5,4.4h0c-.3,1.5-1,2.6-2.2,3.5h0c-.5-1.3-1.4-2.2-2.8-2.7h0c-1.4-.4-2.8-.3-4.3.2h0c-1.5.5-2.9,1.5-4.1,2.9h0c-1.2,1.4-1.9,3.2-2.1,5.5h0c-.1,1.3-.2,2.6-.2,3.9h0v3.5h0v16.9h-10.5ZM427.4,73.8v-4.4h0c-2,1.9-4.2,3.3-6.5,4.3h0c-2.3.9-4.7,1.3-7.1,1.2h0c-2.3-.1-4.6-.7-6.9-1.6h0c-2.2-1-4.1-2.4-5.8-4.3h0c-1.7-1.8-3.1-4.1-4.1-6.6h0c-1-2.6-1.5-5.5-1.5-8.8h0c0-3.2.5-6.1,1.6-8.7h0c1.1-2.7,2.6-4.9,4.4-6.8h0c1.9-1.9,4-3.4,6.3-4.4h0c2.4-1,4.9-1.4,7.4-1.3h0c2.7,0,4.8.6,6.3,1.7h0c1.5,1,2.6,2.2,3.3,3.6h0c.7,1.3,1,2.7,1,4h0c0,1.4-.3,2.5-.7,3.3h0c-.9-1.3-2.2-2.1-3.9-2.6h0c-1.6-.5-3.2-.7-4.6-.7h0c-2.4,0-4.5.6-6.1,1.8h0c-1.7,1.2-2.9,2.7-3.7,4.4h0c-.8,1.8-1.3,3.7-1.3,5.8h0c0,2.1.4,4,1.2,5.8h0c.8,1.8,2,3.2,3.6,4.4h0c1.6,1.2,3.6,1.8,6.1,1.8h0c2.1,0,3.9-.5,5.2-1.4h0c1.3-.9,2.4-2.1,3.2-3.6h0c.8-1.5,1.4-3.2,1.8-5.1h0c.3-1.8.5-3.7.5-5.5h0V17.5h0c3.2.1,5.6,1,7.4,2.6h0c1.8,1.6,2.7,3.5,2.7,5.6h0v48.1h-10.1Z" />
  </g>
  <g id="Capa_1-2">
    <path class="st0" d="M65.2,33.7c.2-5.8-.6-11.7.9-17.3,3.8-14,20.7-20.6,32.6-11.9,2.8-.8,5.6-1.6,8.5-1.7l-3.5,2.6c-5,4.5-6.4,9.6-6.6,16.1-.7,16.6,3.2,30.6-8.9,44.2-10.5,11.8-27.2,15.2-41.7,9.1l-13.4,14.4H11.5c0-.3.1-.4.3-.6.6-.7,1.7-1.9,2.4-2.6,7.9-8.3,16.4-16,24.3-24.3,1.3.3,2.5.8,3.7,1.1,9.5,2.3,21-.1,26.9-8.4,3.4-4.8,4.7-10.5,3.4-16.4-.3-1.4-.9-3.1-1.9-4.2v6.1c0,2.3-2,7.1-3.1,9.1-8.3,14.2-29.6,12.9-39.8,1.6-.6-.6-1.3-1.5-1.6-2.2h15l-4.2-4.2c-5.1-.3-10.4.6-15.3-1.2-4-1.5-7.9-5.1-9.4-9.1h53.1,0ZM86.3,7.5c-3.7.6-2.9,6.2.9,5.8,3.8-.4,3.1-6.4-.9-5.8Z" />
    <g>
      <path class="st0" d="M65.2,33.7c.2-5.8-.6-11.7.9-17.3,3.8-14,20.7-20.6,32.6-11.9,2.8-.8,5.6-1.6,8.5-1.7l-3.5,2.6c-5,4.5-6.4,9.6-6.6,16.1-.7,16.6,3.2,30.6-8.9,44.2-10.5,11.8-27.2,15.2-41.7,9.1l-13.4,14.4H11.5c0-.3.1-.4.3-.6.6-.7,1.7-1.9,2.4-2.6,7.9-8.3,16.4-16,24.3-24.3,1.3.3,2.5.8,3.7,1.1,9.5,2.3,21-.1,26.9-8.4,3.4-4.8,4.7-10.5,3.4-16.4-.3-1.4-.9-3.1-1.9-4.2v6.1c0,2.3-2,7.1-3.1,9.1-8.3,14.2-29.6,12.9-39.8,1.6-.6-.6-1.3-1.5-1.6-2.2h15l-4.2-4.2c-5.1-.3-10.4.6-15.3-1.2-4-1.5-7.9-5.1-9.4-9.1h53.1,0ZM86.3,7.5c-3.7.6-2.9,6.2.9,5.8,3.8-.4,3.1-6.4-.9-5.8Z" />
      <g class="st1">
        <path class="st0" d="M74.8,25c2.3-.4,2.7,3.1.5,3.3-2.2.2-2.6-3-.5-3.3Z" />
      </g>
    </g>
  </g>
</svg>